<svg width="1468" height="561" viewBox="0 0 1468 561" fill="none" xmlns="http://www.w3.org/2000/svg">
<rect width="1468" height="561" fill="#09134D"/>
<g clip-path="url(#clip0_1_2)">
<path d="M545.027 432.675C545.243 425.624 539.969 419.724 533.249 419.497C526.528 419.271 520.904 424.803 520.689 431.855C520.473 438.906 525.746 444.806 532.467 445.032C539.188 445.259 544.811 439.726 545.027 432.675Z" fill="#FFE0C1"/>
<path d="M147.175 419.464C144.767 419.461 142.412 420.209 140.408 421.611C138.404 423.013 136.842 425.007 135.919 427.341C134.996 429.675 134.753 432.244 135.221 434.723C135.69 437.201 136.849 439.479 138.551 441.266C140.253 443.054 142.423 444.272 144.785 444.766C147.147 445.259 149.595 445.007 151.821 444.041C154.046 443.074 155.949 441.437 157.287 439.336C158.625 437.235 159.34 434.765 159.34 432.238C159.34 428.852 158.058 425.605 155.777 423.209C153.497 420.814 150.403 419.467 147.175 419.464V419.464Z" fill="#FFE0C1"/>
<path d="M436.418 116C434.009 115.998 431.654 116.745 429.651 118.147C427.647 119.549 426.085 121.543 425.161 123.877C424.238 126.211 423.995 128.78 424.464 131.259C424.932 133.738 426.091 136.015 427.793 137.802C429.496 139.59 431.665 140.808 434.027 141.302C436.389 141.796 438.838 141.543 441.063 140.577C443.289 139.61 445.191 137.973 446.529 135.872C447.868 133.771 448.582 131.301 448.582 128.774C448.582 125.388 447.301 122.141 445.02 119.746C442.739 117.35 439.645 116.003 436.418 116V116Z" fill="#39E062"/>
<path d="M484.621 116C482.213 116 479.859 116.749 477.857 118.153C475.855 119.556 474.294 121.551 473.373 123.886C472.451 126.22 472.21 128.788 472.68 131.266C473.15 133.744 474.309 136.02 476.012 137.807C477.715 139.593 479.884 140.81 482.246 141.303C484.608 141.796 487.056 141.543 489.281 140.576C491.505 139.609 493.407 137.972 494.745 135.871C496.083 133.77 496.797 131.301 496.797 128.774C496.797 125.386 495.514 122.137 493.231 119.741C490.947 117.346 487.85 116 484.621 116V116Z" fill="#39E062"/>
<path d="M545.555 129.05C545.824 121.995 540.591 116.047 533.867 115.765C527.142 115.483 521.473 120.973 521.204 128.028C520.935 135.083 526.168 141.031 532.893 141.313C539.617 141.595 545.286 136.105 545.555 129.05Z" fill="#FFE0C1"/>
<path d="M544.995 179.786C545.224 172.735 539.962 166.825 533.241 166.584C526.521 166.344 520.887 171.866 520.659 178.916C520.43 185.967 525.692 191.878 532.413 192.118C539.133 192.358 544.767 186.837 544.995 179.786Z" fill="#39E062"/>
<path d="M484.621 166.585C482.213 166.585 479.858 167.335 477.856 168.739C475.853 170.143 474.293 172.139 473.372 174.474C472.45 176.808 472.21 179.377 472.681 181.856C473.151 184.334 474.312 186.61 476.016 188.396C477.72 190.182 479.89 191.398 482.253 191.889C484.615 192.381 487.064 192.126 489.288 191.158C491.513 190.189 493.414 188.55 494.75 186.447C496.087 184.345 496.799 181.874 496.797 179.347C496.797 177.67 496.482 176.01 495.87 174.461C495.258 172.912 494.361 171.504 493.23 170.319C492.099 169.134 490.757 168.194 489.28 167.553C487.803 166.913 486.22 166.584 484.621 166.585V166.585Z" fill="#39E062"/>
<path d="M436.418 166.585C434.009 166.583 431.653 167.33 429.649 168.733C427.645 170.136 426.083 172.131 425.16 174.465C424.237 176.8 423.995 179.369 424.465 181.848C424.934 184.327 426.094 186.605 427.797 188.392C429.501 190.179 431.671 191.396 434.034 191.888C436.397 192.381 438.846 192.127 441.071 191.159C443.296 190.19 445.198 188.551 446.535 186.449C447.872 184.346 448.584 181.875 448.582 179.347C448.582 177.671 448.267 176.012 447.656 174.464C447.045 172.915 446.149 171.508 445.019 170.323C443.89 169.138 442.549 168.198 441.073 167.557C439.597 166.915 438.015 166.585 436.418 166.585Z" fill="#FFE0C1"/>
<path d="M436.418 217.159C434.009 217.156 431.654 217.903 429.651 219.306C427.647 220.708 426.085 222.702 425.161 225.036C424.238 227.37 423.995 229.939 424.464 232.417C424.932 234.896 426.091 237.173 427.793 238.961C429.496 240.749 431.665 241.966 434.027 242.46C436.389 242.954 438.838 242.702 441.063 241.735C443.289 240.769 445.191 239.132 446.529 237.031C447.868 234.93 448.582 232.46 448.582 229.933C448.582 226.547 447.301 223.299 445.02 220.904C442.739 218.509 439.645 217.162 436.418 217.159V217.159Z" fill="#39E062"/>
<path d="M484.621 217.159C482.213 217.159 479.859 217.908 477.857 219.311C475.855 220.715 474.294 222.71 473.373 225.044C472.451 227.378 472.21 229.947 472.68 232.425C473.15 234.903 474.309 237.179 476.012 238.965C477.715 240.752 479.884 241.968 482.246 242.461C484.608 242.954 487.056 242.701 489.281 241.734C491.505 240.767 493.407 239.13 494.745 237.029C496.083 234.929 496.797 232.459 496.797 229.933C496.797 226.545 495.514 223.296 493.231 220.9C490.947 218.504 487.85 217.159 484.621 217.159V217.159Z" fill="#39E062"/>
<path d="M545.001 230.369C545.23 223.318 539.968 217.408 533.247 217.168C526.527 216.928 520.893 222.449 520.665 229.5C520.436 236.551 525.698 242.461 532.419 242.701C539.139 242.941 544.773 237.42 545.001 230.369Z" fill="#FFE0C1"/>
<path d="M436.418 267.732C434.009 267.73 431.654 268.477 429.651 269.879C427.647 271.281 426.085 273.275 425.161 275.609C424.238 277.943 423.995 280.512 424.464 282.991C424.932 285.469 426.091 287.747 427.793 289.534C429.496 291.322 431.665 292.54 434.027 293.034C436.389 293.528 438.838 293.275 441.063 292.309C443.289 291.342 445.191 289.705 446.529 287.604C447.868 285.503 448.582 283.033 448.582 280.506C448.582 277.12 447.301 273.873 445.02 271.478C442.739 269.082 439.645 267.735 436.418 267.732V267.732Z" fill="#39E062"/>
<path d="M484.621 267.732C482.213 267.732 479.859 268.481 477.857 269.885C475.855 271.288 474.294 273.283 473.373 275.618C472.451 277.952 472.21 280.52 472.68 282.998C473.15 285.476 474.309 287.752 476.012 289.539C477.715 291.325 479.884 292.542 482.246 293.035C484.608 293.527 487.056 293.274 489.281 292.308C491.505 291.341 493.407 289.704 494.745 287.603C496.083 285.502 496.797 283.032 496.797 280.506C496.797 277.118 495.514 273.869 493.231 271.473C490.947 269.078 487.85 267.732 484.621 267.732V267.732Z" fill="#39E062"/>
<path d="M545.668 280.958C545.937 273.903 540.704 267.955 533.98 267.672C527.256 267.39 521.586 272.881 521.317 279.936C521.048 286.99 526.282 292.938 533.006 293.221C539.73 293.503 545.399 288.012 545.668 280.958Z" fill="#39E062"/>
<path d="M544.991 331.524C545.22 324.473 539.957 318.562 533.237 318.322C526.516 318.082 520.883 323.603 520.654 330.654C520.425 337.705 525.688 343.615 532.408 343.856C539.129 344.096 544.762 338.574 544.991 331.524Z" fill="#39E062"/>
<path d="M484.621 318.317C482.213 318.317 479.858 319.067 477.856 320.471C475.853 321.875 474.293 323.871 473.372 326.206C472.45 328.54 472.21 331.109 472.681 333.588C473.151 336.066 474.312 338.342 476.016 340.128C477.72 341.914 479.89 343.13 482.253 343.621C484.615 344.113 487.064 343.858 489.288 342.889C491.513 341.921 493.414 340.282 494.75 338.179C496.087 336.077 496.799 333.606 496.797 331.079C496.797 329.402 496.482 327.742 495.87 326.193C495.258 324.644 494.361 323.236 493.23 322.051C492.099 320.866 490.757 319.926 489.28 319.285C487.803 318.645 486.22 318.316 484.621 318.317Z" fill="#39E062"/>
<path d="M436.418 318.317C434.009 318.315 431.653 319.062 429.649 320.465C427.645 321.868 426.083 323.863 425.16 326.197C424.237 328.532 423.995 331.101 424.465 333.58C424.934 336.059 426.094 338.337 427.797 340.124C429.501 341.911 431.671 343.128 434.034 343.62C436.397 344.113 438.846 343.859 441.071 342.891C443.296 341.922 445.198 340.283 446.535 338.181C447.872 336.078 448.584 333.607 448.582 331.079C448.582 329.403 448.267 327.744 447.656 326.195C447.045 324.647 446.149 323.24 445.019 322.055C443.89 320.87 442.549 319.93 441.073 319.289C439.597 318.647 438.015 318.317 436.418 318.317Z" fill="#39E062"/>
<path d="M484.621 368.89C482.213 368.89 479.859 369.64 477.857 371.043C475.855 372.447 474.294 374.442 473.373 376.776C472.451 379.11 472.21 381.679 472.68 384.157C473.15 386.635 474.309 388.911 476.012 390.697C477.715 392.484 479.884 393.7 482.246 394.193C484.608 394.686 487.056 394.433 489.281 393.466C491.505 392.499 493.407 390.862 494.745 388.761C496.083 386.661 496.797 384.191 496.797 381.665C496.797 378.277 495.514 375.027 493.231 372.632C490.947 370.236 487.85 368.89 484.621 368.89V368.89Z" fill="#39E062"/>
<path d="M545.008 382.095C545.237 375.044 539.975 369.134 533.254 368.894C526.534 368.654 520.9 374.175 520.671 381.226C520.443 388.277 525.705 394.187 532.426 394.427C539.146 394.667 544.779 389.146 545.008 382.095Z" fill="#FFE0C1"/>
<path d="M147.176 116C144.767 115.998 142.412 116.745 140.408 118.147C138.405 119.549 136.842 121.543 135.919 123.877C134.996 126.211 134.753 128.78 135.222 131.259C135.69 133.738 136.849 136.015 138.551 137.802C140.253 139.59 142.423 140.808 144.785 141.302C147.147 141.796 149.596 141.543 151.821 140.577C154.047 139.61 155.949 137.973 157.287 135.872C158.625 133.771 159.34 131.301 159.34 128.774C159.34 125.388 158.059 122.141 155.778 119.746C153.497 117.35 150.403 116.003 147.176 116V116Z" fill="#FFE0C1"/>
<path d="M195.379 116C192.971 116 190.617 116.749 188.614 118.153C186.612 119.556 185.052 121.551 184.13 123.886C183.209 126.22 182.967 128.788 183.437 131.266C183.907 133.744 185.067 136.02 186.769 137.807C188.472 139.593 190.642 140.81 193.003 141.303C195.365 141.796 197.813 141.543 200.038 140.576C202.263 139.609 204.164 137.972 205.502 135.871C206.84 133.77 207.554 131.301 207.554 128.774C207.554 125.386 206.271 122.137 203.988 119.741C201.705 117.346 198.608 116 195.379 116V116Z" fill="#39E062"/>
<path d="M255.739 129.238C255.985 122.188 250.737 116.263 244.018 116.005C237.298 115.746 231.651 121.252 231.404 128.302C231.158 135.352 236.406 141.277 243.125 141.536C249.845 141.794 255.492 136.289 255.739 129.238Z" fill="#39E062"/>
<path d="M255.75 179.755C255.966 172.703 250.693 166.804 243.972 166.577C237.251 166.35 231.628 171.883 231.412 178.934C231.196 185.986 236.469 191.885 243.19 192.112C249.911 192.338 255.534 186.806 255.75 179.755Z" fill="#FFE0C1"/>
<path d="M195.379 166.585C192.97 166.585 190.616 167.335 188.613 168.739C186.611 170.143 185.05 172.139 184.129 174.474C183.208 176.808 182.967 179.377 183.438 181.856C183.909 184.334 185.07 186.61 186.773 188.396C188.477 190.182 190.648 191.398 193.01 191.889C195.373 192.381 197.821 192.126 200.046 191.158C202.27 190.189 204.171 188.55 205.508 186.447C206.844 184.345 207.556 181.874 207.554 179.347C207.551 175.962 206.267 172.715 203.984 170.322C201.701 167.929 198.606 166.585 195.379 166.585V166.585Z" fill="#39E062"/>
<path d="M147.175 166.585C144.766 166.583 142.411 167.33 140.407 168.733C138.403 170.136 136.841 172.131 135.918 174.465C134.995 176.8 134.753 179.369 135.222 181.848C135.692 184.327 136.851 186.605 138.555 188.392C140.258 190.179 142.429 191.396 144.792 191.888C147.154 192.381 149.603 192.127 151.829 191.159C154.054 190.19 155.955 188.551 157.292 186.449C158.629 184.346 159.342 181.875 159.34 179.347C159.34 175.963 158.058 172.717 155.777 170.323C153.496 167.93 150.402 166.585 147.175 166.585V166.585Z" fill="#39E062"/>
<path d="M147.175 217.159C144.767 217.156 142.412 217.903 140.408 219.306C138.404 220.708 136.842 222.702 135.919 225.036C134.996 227.37 134.753 229.939 135.221 232.417C135.69 234.896 136.849 237.173 138.551 238.961C140.253 240.749 142.423 241.966 144.785 242.46C147.147 242.954 149.595 242.702 151.821 241.735C154.046 240.769 155.949 239.132 157.287 237.031C158.625 234.93 159.34 232.46 159.34 229.933C159.34 226.547 158.058 223.299 155.777 220.904C153.497 218.509 150.403 217.162 147.175 217.159V217.159Z" fill="#FFE0C1"/>
<path d="M195.379 217.159C192.971 217.159 190.617 217.908 188.614 219.311C186.612 220.715 185.052 222.71 184.13 225.044C183.209 227.378 182.967 229.947 183.437 232.425C183.907 234.903 185.067 237.179 186.769 238.965C188.472 240.752 190.642 241.968 193.003 242.461C195.365 242.954 197.813 242.701 200.038 241.734C202.263 240.767 204.164 239.13 205.502 237.029C206.84 234.929 207.554 232.459 207.554 229.933C207.554 226.545 206.271 223.296 203.988 220.9C201.705 218.504 198.608 217.159 195.379 217.159V217.159Z" fill="#39E062"/>
<path d="M255.572 229.844C255.774 222.789 250.486 216.899 243.762 216.687C237.037 216.475 231.423 222.023 231.221 229.078C231.019 236.133 236.307 242.023 243.031 242.235C249.755 242.447 255.37 236.899 255.572 229.844Z" fill="#39E062"/>
<path d="M147.175 267.732C144.767 267.73 142.412 268.477 140.408 269.879C138.404 271.281 136.842 273.275 135.919 275.609C134.996 277.943 134.753 280.512 135.221 282.991C135.69 285.469 136.849 287.747 138.551 289.534C140.253 291.322 142.423 292.54 144.785 293.034C147.147 293.528 149.595 293.275 151.821 292.309C154.046 291.342 155.949 289.705 157.287 287.604C158.625 285.503 159.34 283.033 159.34 280.506C159.34 277.12 158.058 273.873 155.777 271.478C153.497 269.082 150.403 267.735 147.175 267.732V267.732Z" fill="#39E062"/>
<path d="M195.379 267.732C192.971 267.732 190.617 268.481 188.614 269.885C186.612 271.288 185.052 273.283 184.13 275.618C183.209 277.952 182.967 280.52 183.437 282.998C183.907 285.476 185.067 287.752 186.769 289.539C188.472 291.325 190.642 292.542 193.003 293.035C195.365 293.527 197.813 293.274 200.038 292.308C202.263 291.341 204.164 289.704 205.502 287.603C206.84 285.502 207.554 283.032 207.554 280.506C207.554 277.118 206.271 273.869 203.988 271.473C201.705 269.078 198.608 267.732 195.379 267.732V267.732Z" fill="#39E062"/>
<path d="M255.744 280.957C255.99 273.907 250.742 267.982 244.022 267.724C237.303 267.465 231.655 272.971 231.409 280.021C231.163 287.071 236.41 292.996 243.13 293.255C249.85 293.513 255.497 288.007 255.744 280.957Z" fill="#39E062"/>
<path d="M255.744 331.486C255.959 324.435 250.686 318.535 243.965 318.309C237.244 318.082 231.621 323.615 231.405 330.666C231.189 337.717 236.463 343.617 243.183 343.844C249.904 344.07 255.528 338.538 255.744 331.486Z" fill="#39E062"/>
<path d="M195.379 318.317C192.97 318.317 190.616 319.067 188.613 320.471C186.611 321.875 185.05 323.871 184.129 326.206C183.208 328.54 182.967 331.109 183.438 333.588C183.909 336.066 185.07 338.342 186.773 340.128C188.477 341.914 190.648 343.13 193.01 343.621C195.373 344.113 197.821 343.858 200.046 342.889C202.27 341.921 204.171 340.282 205.508 338.179C206.844 336.077 207.556 333.606 207.554 331.079C207.551 327.693 206.267 324.447 203.984 322.054C201.701 319.661 198.606 318.317 195.379 318.317V318.317Z" fill="#39E062"/>
<path d="M147.175 318.317C144.766 318.315 142.411 319.062 140.407 320.465C138.403 321.868 136.841 323.863 135.918 326.197C134.995 328.532 134.753 331.101 135.222 333.58C135.692 336.059 136.851 338.337 138.555 340.124C140.258 341.911 142.429 343.128 144.792 343.62C147.154 344.113 149.603 343.859 151.829 342.891C154.054 341.922 155.955 340.283 157.292 338.181C158.629 336.078 159.342 333.607 159.34 331.079C159.34 329.403 159.025 327.744 158.414 326.195C157.802 324.647 156.906 323.24 155.777 322.055C154.647 320.87 153.306 319.93 151.83 319.289C150.355 318.647 148.773 318.317 147.175 318.317V318.317Z" fill="#39E062"/>
<path d="M147.175 368.89C144.767 368.888 142.412 369.635 140.408 371.037C138.404 372.44 136.842 374.434 135.919 376.768C134.996 379.102 134.753 381.671 135.221 384.149C135.69 386.628 136.849 388.905 138.551 390.693C140.253 392.481 142.423 393.698 144.785 394.192C147.147 394.686 149.595 394.434 151.821 393.467C154.046 392.501 155.949 390.864 157.287 388.763C158.625 386.662 159.34 384.191 159.34 381.665C159.34 378.279 158.058 375.031 155.777 372.636C153.497 370.241 150.403 368.894 147.175 368.89V368.89Z" fill="#FFE0C1"/>
<path d="M195.379 368.89C192.971 368.89 190.617 369.64 188.614 371.043C186.612 372.447 185.052 374.442 184.13 376.776C183.209 379.11 182.967 381.679 183.437 384.157C183.907 386.635 185.067 388.911 186.769 390.697C188.472 392.484 190.642 393.7 193.003 394.193C195.365 394.686 197.813 394.433 200.038 393.466C202.263 392.499 204.164 390.862 205.502 388.761C206.84 386.661 207.554 384.191 207.554 381.665C207.554 378.277 206.271 375.027 203.988 372.632C201.705 370.236 198.608 368.89 195.379 368.89V368.89Z" fill="#39E062"/>
<path d="M291.797 141.548C298.521 141.548 303.972 135.829 303.972 128.774C303.972 121.719 298.521 116 291.797 116C285.072 116 279.621 121.719 279.621 128.774C279.621 135.829 285.072 141.548 291.797 141.548Z" fill="#39E062"/>
<path d="M340.04 141.544C346.765 141.523 352.199 135.787 352.18 128.732C352.16 121.677 346.692 115.975 339.968 115.996C333.244 116.017 327.809 121.753 327.829 128.808C327.849 135.862 333.316 141.565 340.04 141.544Z" fill="#39E062"/>
<path d="M388.203 116C385.795 116 383.441 116.749 381.439 118.153C379.437 119.556 377.876 121.551 376.955 123.886C376.033 126.22 375.792 128.788 376.262 131.266C376.732 133.744 377.891 136.02 379.594 137.807C381.297 139.593 383.466 140.81 385.828 141.303C388.19 141.796 390.638 141.543 392.863 140.576C395.087 139.609 396.989 137.972 398.327 135.871C399.665 133.77 400.379 131.301 400.379 128.774C400.38 127.096 400.066 125.434 399.455 123.884C398.844 122.333 397.947 120.924 396.816 119.738C395.685 118.551 394.342 117.611 392.864 116.969C391.387 116.328 389.803 115.998 388.203 116V116Z" fill="#39E062"/>
<path d="M388.203 166.585C385.795 166.585 383.44 167.335 381.438 168.739C379.435 170.143 377.875 172.139 376.954 174.474C376.032 176.808 375.792 179.377 376.263 181.856C376.733 184.334 377.894 186.61 379.598 188.396C381.302 190.182 383.472 191.398 385.835 191.889C388.198 192.381 390.646 192.126 392.871 191.158C395.095 190.189 396.996 188.55 398.332 186.447C399.669 184.345 400.381 181.874 400.379 179.347C400.379 177.67 400.064 176.01 399.452 174.461C398.84 172.912 397.943 171.504 396.812 170.319C395.681 169.134 394.339 168.194 392.862 167.553C391.385 166.913 389.802 166.584 388.203 166.585V166.585Z" fill="#39E062"/>
<path d="M340.032 192.129C346.756 192.11 352.193 186.376 352.175 179.321C352.158 172.266 346.692 166.562 339.968 166.581C333.244 166.599 327.807 172.333 327.825 179.388C327.842 186.443 333.308 192.147 340.032 192.129Z" fill="#39E062"/>
<path d="M291.797 192.121C298.521 192.121 303.972 186.402 303.972 179.347C303.972 172.292 298.521 166.573 291.797 166.573C285.072 166.573 279.621 172.292 279.621 179.347C279.621 186.402 285.072 192.121 291.797 192.121Z" fill="#39E062"/>
<path d="M291.797 242.695C298.521 242.695 303.972 236.976 303.972 229.921C303.972 222.866 298.521 217.147 291.797 217.147C285.072 217.147 279.621 222.866 279.621 229.921C279.621 236.976 285.072 242.695 291.797 242.695Z" fill="#39E062"/>
<path d="M340.022 242.714C346.747 242.695 352.183 236.961 352.166 229.906C352.148 222.851 346.683 217.147 339.958 217.166C333.234 217.184 327.797 222.918 327.815 229.973C327.833 237.028 333.298 242.732 340.022 242.714Z" fill="#FFE0C1"/>
<path d="M388.203 217.159C385.795 217.159 383.441 217.908 381.439 219.311C379.437 220.715 377.876 222.71 376.955 225.044C376.033 227.378 375.792 229.947 376.262 232.425C376.732 234.903 377.891 237.179 379.594 238.965C381.297 240.752 383.466 241.968 385.828 242.461C388.19 242.954 390.638 242.701 392.863 241.734C395.087 240.767 396.989 239.13 398.327 237.03C399.665 234.929 400.379 232.459 400.379 229.933C400.38 228.255 400.066 226.593 399.455 225.042C398.844 223.492 397.947 222.083 396.816 220.897C395.685 219.71 394.342 218.769 392.864 218.128C391.387 217.486 389.803 217.157 388.203 217.159V217.159Z" fill="#39E062"/>
<path d="M291.797 293.28C298.521 293.28 303.972 287.561 303.972 280.506C303.972 273.451 298.521 267.732 291.797 267.732C285.072 267.732 279.621 273.451 279.621 280.506C279.621 287.561 285.072 293.28 291.797 293.28Z" fill="#39E062"/>
<path d="M388.203 267.732C385.795 267.732 383.441 268.481 381.439 269.885C379.437 271.288 377.876 273.283 376.955 275.618C376.033 277.952 375.792 280.52 376.262 282.998C376.732 285.476 377.891 287.752 379.594 289.539C381.297 291.325 383.466 292.542 385.828 293.035C388.19 293.527 390.638 293.274 392.863 292.308C395.087 291.341 396.989 289.704 398.327 287.603C399.665 285.502 400.379 283.032 400.379 280.506C400.38 278.828 400.066 277.166 399.455 275.616C398.844 274.065 397.947 272.656 396.816 271.47C395.685 270.283 394.342 269.342 392.864 268.701C391.387 268.06 389.803 267.73 388.203 267.732Z" fill="#39E062"/>
</g>
<path d="M677.18 193.96H697.34L736.22 272.08H734.78L773.66 193.96H793.28V307H779.06V208.54H781.58L740.18 292.78H730.82L689.6 209.08H691.22V307H677.18V193.96ZM815.362 220.96H831.022L859.102 294.76H855.862L877.642 220.96H892.042L859.642 324.28C856.942 332.92 853.342 339.58 848.842 344.26C844.342 348.94 838.582 351.28 831.562 351.28C827.782 351.28 824.182 350.74 820.762 349.66C817.402 348.58 813.922 347.02 810.322 344.98V332.02C813.502 334.54 816.562 336.34 819.502 337.42C822.502 338.5 825.622 339.04 828.862 339.04C832.462 339.04 835.462 337.9 837.862 335.62C840.322 333.34 842.362 330.4 843.982 326.8C845.602 323.26 846.982 319.54 848.122 315.64L850.642 307L815.362 220.96ZM949.61 309.16C942.05 309.16 935.12 307.81 928.82 305.11C922.52 302.35 917.45 298.3 913.61 292.96C909.77 287.62 907.79 281.02 907.67 273.16H921.35C921.35 278.44 922.64 282.79 925.22 286.21C927.8 289.57 931.22 292.09 935.48 293.77C939.74 295.39 944.39 296.2 949.43 296.2C954.89 296.2 959.63 295.33 963.65 293.59C967.67 291.85 970.76 289.57 972.92 286.75C975.14 283.87 976.25 280.72 976.25 277.3C976.25 272.5 974.78 268.63 971.84 265.69C968.9 262.69 964.55 260.26 958.79 258.4L938.81 251.38C929.45 248.02 922.37 244.18 917.57 239.86C912.77 235.54 910.37 229.48 910.37 221.68C910.37 212.92 913.73 205.78 920.45 200.26C927.23 194.74 936.83 191.98 949.25 191.98C960.77 191.98 969.77 194.65 976.25 199.99C982.73 205.27 986.45 212.38 987.41 221.32H973.55C972.65 216.1 970.19 212.05 966.17 209.17C962.21 206.23 956.57 204.76 949.25 204.76C941.81 204.76 936.02 206.41 931.88 209.71C927.74 213.01 925.67 217.18 925.67 222.22C925.67 226.36 926.96 229.66 929.54 232.12C932.18 234.52 936.29 236.68 941.87 238.6L965.27 246.7C973.37 249.4 979.76 253.18 984.44 258.04C989.18 262.9 991.55 269.2 991.55 276.94C991.55 282.94 989.93 288.37 986.69 293.23C983.51 298.09 978.8 301.96 972.56 304.84C966.32 307.72 958.67 309.16 949.61 309.16ZM1083.44 307V256.42C1083.44 248.2 1081.46 241.96 1077.5 237.7C1073.6 233.38 1068.26 231.22 1061.48 231.22C1056.32 231.22 1051.85 232.63 1048.07 235.45C1044.29 238.27 1041.38 242.32 1039.34 247.6C1037.3 252.82 1036.28 259.06 1036.28 266.32H1030.88C1030.88 256.3 1032.2 247.75 1034.84 240.67C1037.48 233.59 1041.32 228.19 1046.36 224.47C1051.46 220.69 1057.64 218.8 1064.9 218.8C1071.68 218.8 1077.47 220.33 1082.27 223.39C1087.13 226.39 1090.85 230.71 1093.43 236.35C1096.01 241.99 1097.3 248.68 1097.3 256.42V307H1083.44ZM1022.24 307V184.24H1036.28V307H1022.24ZM1162.01 309.16C1154.27 309.16 1147.37 307.45 1141.31 304.03C1135.31 300.61 1130.57 295.54 1127.09 288.82C1123.61 282.1 1121.87 273.82 1121.87 263.98C1121.87 254.08 1123.61 245.8 1127.09 239.14C1130.57 232.42 1135.31 227.35 1141.31 223.93C1147.37 220.51 1154.27 218.8 1162.01 218.8C1169.69 218.8 1176.53 220.51 1182.53 223.93C1188.59 227.35 1193.33 232.42 1196.75 239.14C1200.23 245.8 1201.97 254.08 1201.97 263.98C1201.97 273.82 1200.23 282.1 1196.75 288.82C1193.33 295.54 1188.59 300.61 1182.53 304.03C1176.53 307.45 1169.69 309.16 1162.01 309.16ZM1161.65 296.92C1167.23 296.92 1171.97 295.6 1175.87 292.96C1179.77 290.26 1182.71 286.45 1184.69 281.53C1186.73 276.61 1187.75 270.76 1187.75 263.98C1187.75 253.72 1185.62 245.65 1181.36 239.77C1177.1 233.83 1170.77 230.86 1162.37 230.86C1156.73 230.86 1151.96 232.21 1148.06 234.91C1144.22 237.55 1141.28 241.36 1139.24 246.34C1137.26 251.26 1136.27 257.14 1136.27 263.98C1136.27 274.12 1138.4 282.16 1142.66 288.1C1146.98 293.98 1153.31 296.92 1161.65 296.92ZM1268.37 309.16C1262.07 309.16 1256.58 307.72 1251.9 304.84C1247.28 301.96 1243.71 297.76 1241.19 292.24C1238.67 286.66 1237.41 279.88 1237.41 271.9H1243.35C1243.35 277.24 1244.46 281.74 1246.68 285.4C1248.9 289.06 1251.78 291.85 1255.32 293.77C1258.92 295.63 1262.73 296.56 1266.75 296.56C1271.07 296.56 1275.21 295.33 1279.17 292.87C1283.13 290.35 1286.37 286.66 1288.89 281.8C1291.41 276.94 1292.67 270.94 1292.67 263.8C1292.67 256.96 1291.5 251.11 1289.16 246.25C1286.88 241.39 1283.79 237.67 1279.89 235.09C1275.99 232.51 1271.67 231.22 1266.93 231.22C1262.85 231.22 1259.01 232.21 1255.41 234.19C1251.81 236.17 1248.9 239.08 1246.68 242.92C1244.46 246.7 1243.35 251.38 1243.35 256.96H1237.41C1237.41 248.62 1238.79 241.63 1241.55 235.99C1244.31 230.29 1248.06 226 1252.8 223.12C1257.54 220.24 1262.85 218.8 1268.73 218.8C1275.45 218.8 1281.72 220.6 1287.54 224.2C1293.36 227.8 1298.07 232.96 1301.67 239.68C1305.27 246.4 1307.07 254.44 1307.07 263.8C1307.07 273.28 1305.24 281.41 1301.58 288.19C1297.98 294.97 1293.24 300.16 1287.36 303.76C1281.48 307.36 1275.15 309.16 1268.37 309.16ZM1229.31 349.3V220.96H1241.01L1243.35 241.12V349.3H1229.31Z" fill="#39E062"/>
<defs>
<clipPath id="clip0_1_2">
<rect width="410" height="329" fill="white" transform="translate(135 116)"/>
</clipPath>
</defs>
</svg>
